<svg id="Guides" xmlns="http://www.w3.org/2000/svg" viewBox="0 0 373.16 74.15"><defs><style>.cls-1{fill:#dbdbdb;}.cls-2{fill:#c19292;}.cls-3{fill:#b65d5d;}</style></defs><path class="cls-1" d="M66.8,14.85h7V56.64h-7Zm4.35,18.42H98.76v5.58H71.15ZM95.06,14.85h7V56.64h-7Z" transform="translate(-6.37 -7.39)"/><path class="cls-1" d="M121.56,55.15a14.4,14.4,0,0,1-6.07-5.47,15.36,15.36,0,0,1-2.16-8.19V30a15.42,15.42,0,0,1,2.16-8.2,14.46,14.46,0,0,1,6.07-5.47,20.27,20.27,0,0,1,9.09-1.94A19.73,19.73,0,0,1,138.52,16a16.08,16.08,0,0,1,6,4.35,15.06,15.06,0,0,1,3.27,6.53h-7.15a9,9,0,0,0-2.18-3.5A10.62,10.62,0,0,0,134.89,21a11.27,11.27,0,0,0-4.24-.83,11.14,11.14,0,0,0-5.34,1.23,8.81,8.81,0,0,0-3.56,3.47A10.34,10.34,0,0,0,120.48,30V41.49a10.41,10.41,0,0,0,1.27,5.18,8.66,8.66,0,0,0,3.56,3.46,11.25,11.25,0,0,0,5.34,1.22,12,12,0,0,0,4.26-.77,10.12,10.12,0,0,0,3.55-2.3,8.76,8.76,0,0,0,2.18-3.63h7.15a15,15,0,0,1-3.29,6.53,16.15,16.15,0,0,1-6,4.35,19.61,19.61,0,0,1-7.83,1.54A20.4,20.4,0,0,1,121.56,55.15Z" transform="translate(-6.37 -7.39)"/><path class="cls-1" d="M169.89,14.85h6l18.33,41.79h-7.52L172.87,22.93,159.08,56.64h-7.53ZM160,41.9h26.18v5.57H160Z" transform="translate(-6.37 -7.39)"/><path class="cls-1" d="M236.42,15.9h6.37V56.64h-6.64V26.12l.34,1.8L224.54,51h-4.73l-11.95-22.5.34-2.36V56.64h-6.64V15.9h6.37l14.24,26.9Z" transform="translate(-6.37 -7.39)"/><path class="cls-1" d="M254.8,15.9h6.81V56.64H254.8Zm3.3,0h26.52v5.43H258.1Zm.2,35.3h15.52a9.26,9.26,0,0,0,4-.78,5.58,5.58,0,0,0,2.52-2.3,8.11,8.11,0,0,0,0-7.31,5.66,5.66,0,0,0-2.52-2.31,9,9,0,0,0-4-.8H258.3V32.26h15.28a19.67,19.67,0,0,1,7.88,1.43,10.77,10.77,0,0,1,5,4.17,12.22,12.22,0,0,1,1.72,6.62,12,12,0,0,1-1.72,6.57,10.81,10.81,0,0,1-5,4.16,19.67,19.67,0,0,1-7.88,1.43H258.3Z" transform="translate(-6.37 -7.39)"/><path class="cls-1" d="M295.33,51.2a8.88,8.88,0,0,0,4.76-1.13,6.66,6.66,0,0,0,2.68-3.53,18.65,18.65,0,0,0,.87-6.24V15.9h6.81V40a25.48,25.48,0,0,1-1.51,9.54,10.37,10.37,0,0,1-4.67,5.39A17.12,17.12,0,0,1,296,56.64h-.67Zm12.55-35.3h23.25v5.43H307.88Zm19.65,0h6.8V56.64h-6.8Z" transform="translate(-6.37 -7.39)"/><path class="cls-1" d="M346.34,15.9h6.81V56.64h-6.81Zm3.5,35.3h15.35a9.31,9.31,0,0,0,4-.78,5.5,5.5,0,0,0,2.51-2.3,8.11,8.11,0,0,0,0-7.31,5.58,5.58,0,0,0-2.51-2.31,9,9,0,0,0-4-.8H349.84V32.26H365a19.65,19.65,0,0,1,7.87,1.43,10.8,10.8,0,0,1,5,4.17,12.31,12.31,0,0,1,1.71,6.62,12.13,12.13,0,0,1-1.71,6.57,10.84,10.84,0,0,1-5,4.16A19.65,19.65,0,0,1,365,56.64H349.84Z" transform="translate(-6.37 -7.39)"/><polygon class="cls-2" points="43.52 0 0 57.5 58.91 57.5 43.52 0"/><path class="cls-3" d="M230.65,47.11h4.79V81.18h-4.79Zm2.47,16.31H244a5,5,0,0,0,2.72-.73,4.82,4.82,0,0,0,1.82-2.06,7,7,0,0,0,.64-3.07,7.1,7.1,0,0,0-.64-3.1,4.9,4.9,0,0,0-1.82-2.07,5,5,0,0,0-2.72-.74H233.12V47.11h10.73a10.78,10.78,0,0,1,5.37,1.3,9,9,0,0,1,3.59,3.66,12.37,12.37,0,0,1,0,11,9,9,0,0,1-3.59,3.65A10.88,10.88,0,0,1,243.85,68H233.12Z" transform="translate(-6.37 -7.39)"/><path class="cls-3" d="M261.87,80.29a8.18,8.18,0,0,1-3.43-3.62,12.7,12.7,0,0,1-1.18-5.73V67a12.48,12.48,0,0,1,1.18-5.66,8.16,8.16,0,0,1,3.43-3.59,12.53,12.53,0,0,1,10.83,0,8.11,8.11,0,0,1,3.43,3.59A12.48,12.48,0,0,1,277.32,67v4a12.58,12.58,0,0,1-1.19,5.69,8.16,8.16,0,0,1-3.43,3.59,12.35,12.35,0,0,1-10.83,0Zm9.3-4.87A6.52,6.52,0,0,0,272.54,71V67a6.4,6.4,0,0,0-1.37-4.38,5.63,5.63,0,0,0-7.76,0A6.35,6.35,0,0,0,262,67v4a6.47,6.47,0,0,0,1.37,4.41,5.58,5.58,0,0,0,7.76,0Z" transform="translate(-6.37 -7.39)"/><path class="cls-3" d="M288.25,80.29a8.42,8.42,0,0,1-3.6-3.61A12.24,12.24,0,0,1,283.41,71V67a12,12,0,0,1,1.24-5.65,8.41,8.41,0,0,1,3.6-3.58,12.17,12.17,0,0,1,5.69-1.23,13.75,13.75,0,0,1,3.57.46,10.68,10.68,0,0,1,3,1.33,8.28,8.28,0,0,1,2.23,2.1l-3.45,3.1a7.22,7.22,0,0,0-2.41-1.81,6.86,6.86,0,0,0-2.88-.63,5.74,5.74,0,0,0-4.29,1.55A5.92,5.92,0,0,0,288.19,67v4a6.17,6.17,0,0,0,1.52,4.46A5.7,5.7,0,0,0,294,77a6.53,6.53,0,0,0,2.9-.68,7.12,7.12,0,0,0,2.39-1.92l3.45,3.32a8.45,8.45,0,0,1-2.25,2.08,10.75,10.75,0,0,1-3,1.3,13.65,13.65,0,0,1-3.55.45A12,12,0,0,1,288.25,80.29Z" transform="translate(-6.37 -7.39)"/><path class="cls-3" d="M312.16,80.29a8.42,8.42,0,0,1-3.6-3.61A12.12,12.12,0,0,1,307.32,71V67a11.88,11.88,0,0,1,1.24-5.65,8.41,8.41,0,0,1,3.6-3.58,12.12,12.12,0,0,1,5.68-1.23,13.77,13.77,0,0,1,3.58.46,10.81,10.81,0,0,1,3,1.33,8.1,8.1,0,0,1,2.22,2.1l-3.44,3.1a7.26,7.26,0,0,0-2.42-1.81,6.86,6.86,0,0,0-2.88-.63,5.77,5.77,0,0,0-4.29,1.55A6,6,0,0,0,312.1,67v4a6.16,6.16,0,0,0,1.51,4.46,5.72,5.72,0,0,0,4.3,1.57,6.54,6.54,0,0,0,2.91-.68,7.12,7.12,0,0,0,2.39-1.92l3.44,3.32a8.45,8.45,0,0,1-2.25,2.08,10.63,10.63,0,0,1-3,1.3,13.59,13.59,0,0,1-3.55.45A12,12,0,0,1,312.16,80.29Z" transform="translate(-6.37 -7.39)"/><path class="cls-3" d="M347.21,81.16V63.89l.56.61L336.08,81.16h-4.15V56.86h4.73V74.53l-.56-.61,11.74-17.06h4.1v24.3Z" transform="translate(-6.37 -7.39)"/><path class="cls-3" d="M374.72,81.16V63.89l.57.61-11.7,16.66h-4.15V56.86h4.74V74.53l-.56-.61,11.74-17.06h4.1v24.3Z" transform="translate(-6.37 -7.39)"/></svg>